<?xml version="1.0" encoding="UTF-8" standalone="no"?><!DOCTYPE svg PUBLIC "-//W3C//DTD SVG 1.1//EN" "http://www.w3.org/Graphics/SVG/1.1/DTD/svg11.dtd"><!-- Generated by graphviz version 2.40.1 (20161225.0304)
 --><!-- Title: G Pages: 1 --><svg xmlns="http://www.w3.org/2000/svg" xmlns:xlink="http://www.w3.org/1999/xlink" width="438pt" height="78pt" viewBox="0.00 0.00 438.35 77.80">
<g id="graph0" class="graph" transform="scale(1 1) rotate(0) translate(4 73.8)">
<title>G</title>
<polygon fill="#ffffff" stroke="transparent" points="-4,4 -4,-73.8 434.3472,-73.8 434.3472,4 -4,4"/>
<!-- index.html -->
<g id="node1" class="node">
<title>index.html</title>
<text text-anchor="middle" x="30.1385" y="-21.2" font-family="Times,serif" font-size="14.00" fill="#000000">index.html</text>
</g>
<!-- main.ts -->
<g id="node2" class="node">
<title>main.ts</title>
<text text-anchor="middle" x="116.6925" y="-21.2" font-family="Times,serif" font-size="14.00" fill="#000000">main.ts</text>
</g>
<!-- index.html&#45;&gt;main.ts -->
<g id="edge1" class="edge">
<title>index.html-&gt;main.ts</title>
<path fill="none" stroke="#000000" d="M60.4109,-25.4C68.7745,-25.4 77.8524,-25.4 86.2268,-25.4"/>
<polygon fill="#000000" stroke="#000000" points="86.3516,-28.9001 96.3516,-25.4 86.3515,-21.9001 86.3516,-28.9001"/>
</g>
<!-- app.module.ts -->
<g id="node3" class="node">
<title>app.module.ts</title>
<text text-anchor="middle" x="214.9064" y="-39.2" font-family="Times,serif" font-size="14.00" fill="#000000">app.module.ts</text>
</g>
<!-- main.ts&#45;&gt;app.module.ts -->
<g id="edge2" class="edge">
<title>main.ts-&gt;app.module.ts</title>
<path fill="none" stroke="#000000" d="M137.0425,-29.1296C145.3862,-30.6588 155.44,-32.5014 165.51,-34.347"/>
<polygon fill="#000000" stroke="#000000" points="165.0556,-37.8219 175.5227,-36.182 166.3176,-30.9366 165.0556,-37.8219"/>
</g>
<!-- environment.ts -->
<g id="node4" class="node">
<title>environment.ts</title>
<text text-anchor="middle" x="214.9064" y="-4.2" font-family="Times,serif" font-size="14.00" fill="#000000">environment.ts</text>
</g>
<!-- main.ts&#45;&gt;environment.ts -->
<g id="edge3" class="edge">
<title>main.ts-&gt;environment.ts</title>
<path fill="none" stroke="#000000" d="M137.0425,-21.8776C144.7172,-20.5492 153.8388,-18.9703 163.0891,-17.3691"/>
<polygon fill="#000000" stroke="#000000" points="163.8582,-20.7882 173.1147,-15.6338 162.6642,-13.8907 163.8582,-20.7882"/>
</g>
<!-- app.component.ts -->
<g id="node5" class="node">
<title>app.component.ts</title>
<text text-anchor="middle" x="361.526" y="-57.2" font-family="Times,serif" font-size="14.00" fill="#000000">app.component.ts</text>
</g>
<!-- app.module.ts&#45;&gt;app.component.ts -->
<g id="edge4" class="edge">
<title>app.module.ts-&gt;app.component.ts</title>
<path fill="none" stroke="#000000" d="M254.1978,-48.2237C268.8102,-50.0176 285.7396,-52.096 301.7727,-54.0643"/>
<polygon fill="#000000" stroke="#000000" points="301.794,-57.5931 312.146,-55.3378 302.647,-50.6453 301.794,-57.5931"/>
</g>
<!-- stock&#45;item.component.ts -->
<g id="node6" class="node">
<title>stock-item.component.ts</title>
<text text-anchor="middle" x="361.526" y="-22.2" font-family="Times,serif" font-size="14.00" fill="#000000">stock-item.component.ts</text>
</g>
<!-- app.module.ts&#45;&gt;stock&#45;item.component.ts -->
<g id="edge5" class="edge">
<title>app.module.ts-&gt;stock-item.component.ts</title>
<path fill="none" stroke="#000000" d="M254.1978,-38.8443C263.0116,-37.8224 272.6684,-36.7027 282.4631,-35.5671"/>
<polygon fill="#000000" stroke="#000000" points="283.1601,-39.0098 292.6904,-34.3812 282.3538,-32.0564 283.1601,-39.0098"/>
</g>
</g>
</svg>