<?xml version="1.0" encoding="utf-8"?>
<!-- Generator: Adobe Illustrator 16.1.0, SVG Export Plug-In . SVG Version: 6.00 Build 0)  -->
<!DOCTYPE svg PUBLIC "-//W3C//DTD SVG 1.1//EN" "http://www.w3.org/Graphics/SVG/1.1/DTD/svg11.dtd">
<svg version="1.1" id="Layer_1" xmlns="http://www.w3.org/2000/svg" xmlns:xlink="http://www.w3.org/1999/xlink" x="0px" y="0px"
	 width="552px" height="114.273px" viewBox="0 0 552 114.273" enable-background="new 0 0 552 114.273" xml:space="preserve">
<line fill="none" stroke="#989797" stroke-width="10" stroke-miterlimit="10" x1="43.639" y1="60.196" x2="499.917" y2="60.196"/>
<path fill="none" stroke="#989797" stroke-width="10" stroke-miterlimit="10" d="M499.917,60.196
	c-3.143-0.873-5.834-1.622-8.976-2.494c0,1.746,0,3.242,0,4.987C494.083,61.815,496.775,61.067,499.917,60.196L499.917,60.196z
	 M44.303,60.196c3.142-0.873,5.834-1.622,8.977-2.494c0,1.746,0,3.242,0,4.987C50.137,61.815,47.445,61.067,44.303,60.196
	L44.303,60.196z"/>
<path opacity="0" fill-rule="evenodd" clip-rule="evenodd" fill="#F7A520" d="M56.936,65.437v36.568
	c0-9.274,301.763-36.568,301.763-36.568H56.936z"/>
<g>
	<defs>
		<path id="SVGID_1_" d="M56.936,65.437v36.568c0-9.274,301.763-36.568,301.763-36.568H56.936z"/>
	</defs>
	<clipPath id="SVGID_2_">
		<use xlink:href="#SVGID_1_"  overflow="visible"/>
	</clipPath>
	<path clip-path="url(#SVGID_2_)" fill="none" stroke="#2F4697" stroke-width="0.1" stroke-miterlimit="10" d="M93.523,97.197
		l-3.976,3.978L93.523,97.197z M93.514,65.437l-35.738,35.738L93.514,65.437z M85.58,101.174l7.943-7.943L85.58,101.174z
		 M73.653,65.437L57.776,81.312L73.653,65.437z M93.514,85.289l-15.885,15.886L93.514,85.289z M93.514,77.336l-23.828,23.828
		L93.514,77.336z M93.514,81.312l-19.861,19.862L93.514,81.312z M57.767,69.404l3.967-3.967L57.767,69.404z M65.71,101.174
		L93.514,73.37L65.71,101.174z M81.595,65.437L57.776,89.255L81.595,65.437z M93.514,69.394l-31.771,31.771L93.514,69.394z
		 M65.701,65.437l-7.934,7.933L65.701,65.437z M57.785,97.197l31.762-31.76L57.785,97.197z M57.767,77.346l11.909-11.91
		L57.767,77.346z M85.58,65.437L57.785,93.231L85.58,65.437z M81.595,101.174l11.918-11.919L81.595,101.174z M57.776,85.289
		l19.853-19.852L57.776,85.289z"/>
</g>
<g>
	<defs>
		<path id="SVGID_3_" d="M56.936,65.437v36.568c0-9.274,301.763-36.568,301.763-36.568H56.936z"/>
	</defs>
	<clipPath id="SVGID_4_">
		<use xlink:href="#SVGID_3_"  overflow="visible"/>
	</clipPath>
	<path clip-path="url(#SVGID_4_)" fill="none" stroke="#2F4697" stroke-width="0.1" stroke-miterlimit="10" d="M129.261,97.197
		l-3.976,3.978L129.261,97.197z M129.251,65.437l-35.738,35.738L129.251,65.437z M121.318,101.174l7.943-7.943L121.318,101.174z
		 M109.39,65.437L93.514,81.312L109.39,65.437z M129.251,85.289l-15.885,15.886L129.251,85.289z M129.251,77.336l-23.828,23.828
		L129.251,77.336z M129.251,81.312l-19.861,19.862L129.251,81.312z M93.505,69.404l3.967-3.967L93.505,69.404z M101.448,101.174
		l27.804-27.805L101.448,101.174z M117.333,65.437l-23.82,23.819L117.333,65.437z M129.251,69.394L97.48,101.165L129.251,69.394z
		 M101.438,65.437l-7.934,7.933L101.438,65.437z M93.523,97.197l31.762-31.76L93.523,97.197z M93.505,77.346l11.909-11.91
		L93.505,77.346z M121.318,65.437L93.523,93.231L121.318,65.437z M117.333,101.174l11.918-11.919L117.333,101.174z M93.514,85.289
		l19.853-19.852L93.514,85.289z"/>
</g>
<g>
	<defs>
		<path id="SVGID_5_" d="M56.936,65.437v36.568c0-9.274,301.763-36.568,301.763-36.568H56.936z"/>
	</defs>
	<clipPath id="SVGID_6_">
		<use xlink:href="#SVGID_5_"  overflow="visible"/>
	</clipPath>
	<path clip-path="url(#SVGID_6_)" fill="none" stroke="#2F4697" stroke-width="0.1" stroke-miterlimit="10" d="M164.998,97.197
		l-3.976,3.978L164.998,97.197z M164.989,65.437l-35.737,35.738L164.989,65.437z M157.056,101.174l7.942-7.943L157.056,101.174z
		 M145.128,65.437l-15.876,15.875L145.128,65.437z M164.989,85.289l-15.885,15.886L164.989,85.289z M164.989,77.336l-23.828,23.828
		L164.989,77.336z M164.989,81.312l-19.861,19.862L164.989,81.312z M129.243,69.404l3.967-3.967L129.243,69.404z M137.186,101.174
		l27.803-27.805L137.186,101.174z M153.071,65.437l-23.82,23.819L153.071,65.437z M164.989,69.394l-31.771,31.771L164.989,69.394z
		 M137.176,65.437l-7.934,7.933L137.176,65.437z M129.261,97.197l31.762-31.76L129.261,97.197z M129.243,77.346l11.91-11.91
		L129.243,77.346z M157.056,65.437l-27.795,27.794L157.056,65.437z M153.071,101.174l11.917-11.919L153.071,101.174z
		 M129.251,85.289l19.853-19.852L129.251,85.289z"/>
</g>
<g>
	<defs>
		<path id="SVGID_7_" d="M56.936,65.437v36.568c0-9.274,301.763-36.568,301.763-36.568H56.936z"/>
	</defs>
	<clipPath id="SVGID_8_">
		<use xlink:href="#SVGID_7_"  overflow="visible"/>
	</clipPath>
	<path clip-path="url(#SVGID_8_)" fill="none" stroke="#2F4697" stroke-width="0.1" stroke-miterlimit="10" d="M200.736,97.197
		l-3.976,3.978L200.736,97.197z M200.727,65.437l-35.738,35.738L200.727,65.437z M192.793,101.174l7.943-7.943L192.793,101.174z
		 M180.866,65.437l-15.877,15.875L180.866,65.437z M200.727,85.289l-15.885,15.886L200.727,85.289z M200.727,77.336l-23.828,23.828
		L200.727,77.336z M200.727,81.312l-19.861,19.862L200.727,81.312z M164.98,69.404l3.967-3.967L164.98,69.404z M172.923,101.174
		l27.804-27.805L172.923,101.174z M188.808,65.437l-23.819,23.819L188.808,65.437z M200.727,69.394l-31.771,31.771L200.727,69.394z
		 M172.914,65.437l-7.933,7.933L172.914,65.437z M164.998,97.197l31.762-31.76L164.998,97.197z M164.98,77.346l11.91-11.91
		L164.98,77.346z M192.793,65.437l-27.795,27.794L192.793,65.437z M188.808,101.174l11.918-11.919L188.808,101.174z M164.989,85.289
		l19.853-19.852L164.989,85.289z"/>
</g>
<g>
	<defs>
		<path id="SVGID_9_" d="M56.936,65.437v36.568c0-9.274,301.763-36.568,301.763-36.568H56.936z"/>
	</defs>
	<clipPath id="SVGID_10_">
		<use xlink:href="#SVGID_9_"  overflow="visible"/>
	</clipPath>
	<path clip-path="url(#SVGID_10_)" fill="none" stroke="#2F4697" stroke-width="0.1" stroke-miterlimit="10" d="M236.474,97.197
		l-3.976,3.978L236.474,97.197z M236.464,65.437l-35.738,35.738L236.464,65.437z M228.531,101.174l7.943-7.943L228.531,101.174z
		 M216.604,65.437l-15.877,15.875L216.604,65.437z M236.464,85.289l-15.885,15.886L236.464,85.289z M236.464,77.336l-23.828,23.828
		L236.464,77.336z M236.464,81.312l-19.861,19.862L236.464,81.312z M200.718,69.404l3.967-3.967L200.718,69.404z M208.661,101.174
		l27.804-27.805L208.661,101.174z M224.545,65.437l-23.819,23.819L224.545,65.437z M236.464,69.394l-31.771,31.771L236.464,69.394z
		 M208.651,65.437l-7.934,7.933L208.651,65.437z M200.736,97.197l31.762-31.76L200.736,97.197z M200.718,77.346l11.91-11.91
		L200.718,77.346z M228.531,65.437l-27.795,27.794L228.531,65.437z M224.545,101.174l11.919-11.919L224.545,101.174z
		 M200.727,85.289l19.853-19.852L200.727,85.289z"/>
</g>
<g>
	<defs>
		<path id="SVGID_11_" d="M56.936,65.437v36.568c0-9.274,301.763-36.568,301.763-36.568H56.936z"/>
	</defs>
	<clipPath id="SVGID_12_">
		<use xlink:href="#SVGID_11_"  overflow="visible"/>
	</clipPath>
	<path clip-path="url(#SVGID_12_)" fill="none" stroke="#2F4697" stroke-width="0.1" stroke-miterlimit="10" d="M272.21,97.197
		l-3.976,3.978L272.21,97.197z M272.203,65.437l-35.738,35.738L272.203,65.437z M264.269,101.174l7.941-7.943L264.269,101.174z
		 M252.34,65.437l-15.876,15.875L252.34,65.437z M272.203,85.289l-15.886,15.886L272.203,85.289z M272.203,77.336l-23.828,23.828
		L272.203,77.336z M272.203,81.312l-19.862,19.862L272.203,81.312z M236.456,69.404l3.967-3.967L236.456,69.404z M244.398,101.174
		l27.804-27.805L244.398,101.174z M260.284,65.437l-23.819,23.819L260.284,65.437z M272.203,69.394l-31.771,31.771L272.203,69.394z
		 M244.389,65.437l-7.934,7.933L244.389,65.437z M236.474,97.197l31.761-31.76L236.474,97.197z M236.456,77.346l11.91-11.91
		L236.456,77.346z M264.269,65.437l-27.795,27.794L264.269,65.437z M260.284,101.174l11.919-11.919L260.284,101.174z
		 M236.464,85.289l19.853-19.852L236.464,85.289z"/>
</g>
<g>
	<defs>
		<path id="SVGID_13_" d="M56.936,65.437v36.568c0-9.274,301.763-36.568,301.763-36.568H56.936z"/>
	</defs>
	<clipPath id="SVGID_14_">
		<use xlink:href="#SVGID_13_"  overflow="visible"/>
	</clipPath>
	<path clip-path="url(#SVGID_14_)" fill="none" stroke="#2F4697" stroke-width="0.1" stroke-miterlimit="10" d="M307.949,97.197
		l-3.977,3.978L307.949,97.197z M307.939,65.437l-35.736,35.738L307.939,65.437z M300.006,101.174l7.942-7.943L300.006,101.174z
		 M288.079,65.437l-15.876,15.875L288.079,65.437z M307.939,85.289l-15.885,15.886L307.939,85.289z M307.939,77.336l-23.827,23.828
		L307.939,77.336z M307.939,81.312l-19.86,19.862L307.939,81.312z M272.194,69.404l3.967-3.967L272.194,69.404z M280.135,101.174
		l27.804-27.805L280.135,101.174z M296.021,65.437l-23.818,23.819L296.021,65.437z M307.939,69.394l-31.769,31.771L307.939,69.394z
		 M280.127,65.437l-7.934,7.933L280.127,65.437z M272.21,97.197l31.762-31.76L272.21,97.197z M272.194,77.346l11.909-11.91
		L272.194,77.346z M300.006,65.437L272.21,93.231L300.006,65.437z M296.021,101.174l11.918-11.919L296.021,101.174z M272.203,85.289
		l19.852-19.852L272.203,85.289z"/>
</g>
<g>
	<defs>
		<path id="SVGID_15_" d="M56.936,65.437v36.568c0-9.274,301.763-36.568,301.763-36.568H56.936z"/>
	</defs>
	<clipPath id="SVGID_16_">
		<use xlink:href="#SVGID_15_"  overflow="visible"/>
	</clipPath>
	<path clip-path="url(#SVGID_16_)" fill="none" stroke="#2F4697" stroke-width="0.1" stroke-miterlimit="10" d="M343.686,97.197
		l-3.976,3.978L343.686,97.197z M343.678,65.437l-35.739,35.738L343.678,65.437z M335.744,101.174l7.942-7.943L335.744,101.174z
		 M323.816,65.437l-15.877,15.875L323.816,65.437z M343.678,85.289l-15.886,15.886L343.678,85.289z M343.678,77.336l-23.828,23.828
		L343.678,77.336z M343.678,81.312l-19.862,19.862L343.678,81.312z M307.931,69.404l3.967-3.967L307.931,69.404z M315.874,101.174
		l27.805-27.805L315.874,101.174z M331.759,65.437l-23.82,23.819L331.759,65.437z M343.678,69.394l-31.771,31.771L343.678,69.394z
		 M315.864,65.437l-7.933,7.933L315.864,65.437z M307.949,97.197l31.762-31.76L307.949,97.197z M307.931,77.346l11.909-11.91
		L307.931,77.346z M335.744,65.437l-27.795,27.794L335.744,65.437z M331.759,101.174l11.919-11.919L331.759,101.174z
		 M307.939,85.289l19.854-19.852L307.939,85.289z"/>
</g>
<g>
	<defs>
		<path id="SVGID_17_" d="M56.936,65.437v36.568c0-9.274,301.763-36.568,301.763-36.568H56.936z"/>
	</defs>
	<clipPath id="SVGID_18_">
		<use xlink:href="#SVGID_17_"  overflow="visible"/>
	</clipPath>
	<path clip-path="url(#SVGID_18_)" fill="none" stroke="#2F4697" stroke-width="0.1" stroke-miterlimit="10" d="M379.424,97.197
		l-3.977,3.978L379.424,97.197z M379.415,65.437l-35.736,35.738L379.415,65.437z M371.482,101.174l7.942-7.943L371.482,101.174z
		 M359.554,65.437l-15.876,15.875L359.554,65.437z M379.415,85.289l-15.885,15.886L379.415,85.289z M379.415,77.336l-23.827,23.828
		L379.415,77.336z M379.415,81.312l-19.86,19.862L379.415,81.312z M343.668,69.404l3.968-3.967L343.668,69.404z M351.611,101.174
		l27.804-27.805L351.611,101.174z M367.497,65.437l-23.818,23.819L367.497,65.437z M379.415,69.394l-31.77,31.771L379.415,69.394z
		 M351.603,65.437l-7.935,7.933L351.603,65.437z M343.686,97.197l31.762-31.76L343.686,97.197z M343.668,77.346l11.91-11.91
		L343.668,77.346z M371.482,65.437l-27.796,27.794L371.482,65.437z M367.497,101.174l11.918-11.919L367.497,101.174z
		 M343.678,85.289l19.852-19.852L343.678,85.289z"/>
</g>
<g>
	<defs>
		<path id="SVGID_19_" d="M56.936,65.437v36.568c0-9.274,301.763-36.568,301.763-36.568H56.936z"/>
	</defs>
	<clipPath id="SVGID_20_">
		<use xlink:href="#SVGID_19_"  overflow="visible"/>
	</clipPath>
	<path clip-path="url(#SVGID_20_)" fill="none" stroke="#2F4697" stroke-width="0.1" stroke-miterlimit="10" d="M415.163,97.197
		l-3.977,3.978L415.163,97.197z M415.153,65.437l-35.738,35.738L415.153,65.437z M407.219,101.174l7.943-7.943L407.219,101.174z
		 M395.292,65.437l-15.877,15.875L395.292,65.437z M415.153,85.289l-15.885,15.886L415.153,85.289z M415.153,77.336l-23.827,23.828
		L415.153,77.336z M415.153,81.312l-19.861,19.862L415.153,81.312z M379.407,69.404l3.967-3.967L379.407,69.404z M387.349,101.174
		l27.804-27.805L387.349,101.174z M403.235,65.437l-23.82,23.819L403.235,65.437z M415.153,69.394l-31.771,31.771L415.153,69.394z
		 M387.339,65.437l-7.933,7.933L387.339,65.437z M379.424,97.197l31.762-31.76L379.424,97.197z M379.407,77.346l11.909-11.91
		L379.407,77.346z M407.219,65.437l-27.795,27.794L407.219,65.437z M403.235,101.174l11.918-11.919L403.235,101.174z
		 M379.415,85.289l19.854-19.852L379.415,85.289z"/>
</g>
<g>
	<defs>
		<path id="SVGID_21_" d="M56.936,65.437v36.568c0-9.274,301.763-36.568,301.763-36.568H56.936z"/>
	</defs>
	<clipPath id="SVGID_22_">
		<use xlink:href="#SVGID_21_"  overflow="visible"/>
	</clipPath>
	<path clip-path="url(#SVGID_22_)" fill="none" stroke="#2F4697" stroke-width="0.1" stroke-miterlimit="10" d="M450.9,97.197
		l-3.977,3.978L450.9,97.197z M450.89,65.437l-35.737,35.738L450.89,65.437z M442.958,101.174l7.942-7.943L442.958,101.174z
		 M431.03,65.437l-15.877,15.875L431.03,65.437z M450.89,85.289l-15.884,15.886L450.89,85.289z M450.89,77.336l-23.827,23.828
		L450.89,77.336z M450.89,81.312l-19.86,19.862L450.89,81.312z M415.144,69.404l3.968-3.967L415.144,69.404z M423.087,101.174
		L450.89,73.37L423.087,101.174z M438.971,65.437l-23.818,23.819L438.971,65.437z M450.89,69.394l-31.771,31.771L450.89,69.394z
		 M423.078,65.437l-7.934,7.933L423.078,65.437z M415.163,97.197l31.761-31.76L415.163,97.197z M415.144,77.346l11.909-11.91
		L415.144,77.346z M442.958,65.437l-27.795,27.794L442.958,65.437z M438.971,101.174l11.919-11.919L438.971,101.174z
		 M415.153,85.289l19.854-19.852L415.153,85.289z"/>
</g>
<g>
	<defs>
		<path id="SVGID_23_" d="M56.936,65.437v36.568c0-9.274,301.763-36.568,301.763-36.568H56.936z"/>
	</defs>
	<clipPath id="SVGID_24_">
		<use xlink:href="#SVGID_23_"  overflow="visible"/>
	</clipPath>
	<path clip-path="url(#SVGID_24_)" fill="none" stroke="#2F4697" stroke-width="0.1" stroke-miterlimit="10" d="M486.638,97.197
		l-3.977,3.978L486.638,97.197z M486.628,65.437l-35.738,35.738L486.628,65.437z M478.695,101.174l7.943-7.943L478.695,101.174z
		 M466.766,65.437L450.89,81.312L466.766,65.437z M486.628,85.289l-15.886,15.886L486.628,85.289z M486.628,77.336l-23.827,23.828
		L486.628,77.336z M486.628,81.312l-19.862,19.862L486.628,81.312z M450.882,69.404l3.966-3.967L450.882,69.404z M458.825,101.174
		l27.804-27.805L458.825,101.174z M474.709,65.437L450.89,89.255L474.709,65.437z M486.628,69.394l-31.771,31.771L486.628,69.394z
		 M458.815,65.437l-7.933,7.933L458.815,65.437z M450.9,97.197l31.762-31.76L450.9,97.197z M450.882,77.346l11.909-11.91
		L450.882,77.346z M478.695,65.437L450.9,93.231L478.695,65.437z M474.709,101.174l11.919-11.919L474.709,101.174z M450.89,85.289
		l19.853-19.852L450.89,85.289z"/>
</g>
<path opacity="0" fill-rule="evenodd" clip-rule="evenodd" fill="#F7A520" d="M486.62,65.437v36.568
	c0-9.274-301.763-36.568-301.763-36.568H486.62z"/>
<g>
	<defs>
		<path id="SVGID_25_" d="M486.62,65.437v36.568c0-9.274-301.763-36.568-301.763-36.568H486.62z"/>
	</defs>
	<clipPath id="SVGID_26_">
		<use xlink:href="#SVGID_25_"  overflow="visible"/>
	</clipPath>
	<path clip-path="url(#SVGID_26_)" fill="none" stroke="#72150F" stroke-width="0.1" stroke-miterlimit="10" d="M450.033,97.197
		l3.976,3.978L450.033,97.197z M450.042,65.437l35.738,35.738L450.042,65.437z M457.976,101.174l-7.943-7.943L457.976,101.174z
		 M469.903,65.437l15.877,15.875L469.903,65.437z M450.042,85.289l15.886,15.886L450.042,85.289z M450.042,77.336l23.828,23.828
		L450.042,77.336z M450.042,81.312l19.861,19.862L450.042,81.312z M485.788,69.404l-3.967-3.967L485.788,69.404z M477.846,101.174
		L450.042,73.37L477.846,101.174z M461.96,65.437l23.819,23.819L461.96,65.437z M450.042,69.394l31.771,31.771L450.042,69.394z
		 M477.855,65.437l7.933,7.933L477.855,65.437z M485.771,97.197l-31.763-31.76L485.771,97.197z M485.788,77.346l-11.909-11.91
		L485.788,77.346z M457.976,65.437l27.795,27.794L457.976,65.437z M461.96,101.174l-11.919-11.919L461.96,101.174z M485.78,85.289
		l-19.853-19.852L485.78,85.289z"/>
</g>
<g>
	<defs>
		<path id="SVGID_27_" d="M486.62,65.437v36.568c0-9.274-301.763-36.568-301.763-36.568H486.62z"/>
	</defs>
	<clipPath id="SVGID_28_">
		<use xlink:href="#SVGID_27_"  overflow="visible"/>
	</clipPath>
	<path clip-path="url(#SVGID_28_)" fill="none" stroke="#72150F" stroke-width="0.1" stroke-miterlimit="10" d="M414.295,97.197
		l3.975,3.978L414.295,97.197z M414.304,65.437l35.737,35.738L414.304,65.437z M422.238,101.174l-7.942-7.943L422.238,101.174z
		 M434.166,65.437l15.876,15.875L434.166,65.437z M414.304,85.289l15.885,15.886L414.304,85.289z M414.304,77.336l23.828,23.828
		L414.304,77.336z M414.304,81.312l19.861,19.862L414.304,81.312z M450.051,69.404l-3.968-3.967L450.051,69.404z M442.108,101.174
		L414.304,73.37L442.108,101.174z M426.223,65.437l23.818,23.819L426.223,65.437z M414.304,69.394l31.771,31.771L414.304,69.394z
		 M442.117,65.437l7.935,7.933L442.117,65.437z M450.033,97.197l-31.763-31.76L450.033,97.197z M450.051,77.346l-11.91-11.91
		L450.051,77.346z M422.238,65.437l27.795,27.794L422.238,65.437z M426.223,101.174l-11.919-11.919L426.223,101.174z
		 M450.042,85.289l-19.853-19.852L450.042,85.289z"/>
</g>
<g>
	<defs>
		<path id="SVGID_29_" d="M486.62,65.437v36.568c0-9.274-301.763-36.568-301.763-36.568H486.62z"/>
	</defs>
	<clipPath id="SVGID_30_">
		<use xlink:href="#SVGID_29_"  overflow="visible"/>
	</clipPath>
	<path clip-path="url(#SVGID_30_)" fill="none" stroke="#72150F" stroke-width="0.1" stroke-miterlimit="10" d="M378.557,97.197
		l3.977,3.978L378.557,97.197z M378.566,65.437l35.738,35.738L378.566,65.437z M386.5,101.174l-7.943-7.943L386.5,101.174z
		 M398.427,65.437l15.877,15.875L398.427,65.437z M378.566,85.289l15.886,15.886L378.566,85.289z M378.566,77.336l23.828,23.828
		L378.566,77.336z M378.566,81.312l19.861,19.862L378.566,81.312z M414.313,69.404l-3.968-3.967L414.313,69.404z M406.371,101.174
		L378.566,73.37L406.371,101.174z M390.485,65.437l23.819,23.819L390.485,65.437z M378.566,69.394l31.771,31.771L378.566,69.394z
		 M406.379,65.437l7.934,7.933L406.379,65.437z M414.295,97.197l-31.762-31.76L414.295,97.197z M414.313,77.346l-11.91-11.91
		L414.313,77.346z M386.5,65.437l27.795,27.794L386.5,65.437z M390.485,101.174l-11.919-11.919L390.485,101.174z M414.304,85.289
		l-19.853-19.852L414.304,85.289z"/>
</g>
<g>
	<defs>
		<path id="SVGID_31_" d="M486.62,65.437v36.568c0-9.274-301.763-36.568-301.763-36.568H486.62z"/>
	</defs>
	<clipPath id="SVGID_32_">
		<use xlink:href="#SVGID_31_"  overflow="visible"/>
	</clipPath>
	<path clip-path="url(#SVGID_32_)" fill="none" stroke="#72150F" stroke-width="0.1" stroke-miterlimit="10" d="M342.82,97.197
		l3.976,3.978L342.82,97.197z M342.829,65.437l35.737,35.738L342.829,65.437z M350.762,101.174l-7.942-7.943L350.762,101.174z
		 M362.69,65.437l15.876,15.875L362.69,65.437z M342.829,85.289l15.885,15.886L342.829,85.289z M342.829,77.336l23.828,23.828
		L342.829,77.336z M342.829,81.312l19.861,19.862L342.829,81.312z M378.576,69.404l-3.968-3.967L378.576,69.404z M370.632,101.174
		L342.829,73.37L370.632,101.174z M354.749,65.437l23.817,23.819L354.749,65.437z M342.829,69.394l31.771,31.771L342.829,69.394z
		 M370.641,65.437l7.935,7.933L370.641,65.437z M378.557,97.197l-31.762-31.76L378.557,97.197z M378.576,77.346l-11.911-11.91
		L378.576,77.346z M350.762,65.437l27.795,27.794L350.762,65.437z M354.749,101.174l-11.92-11.919L354.749,101.174z M378.566,85.289
		l-19.853-19.852L378.566,85.289z"/>
</g>
<g>
	<defs>
		<path id="SVGID_33_" d="M486.62,65.437v36.568c0-9.274-301.763-36.568-301.763-36.568H486.62z"/>
	</defs>
	<clipPath id="SVGID_34_">
		<use xlink:href="#SVGID_33_"  overflow="visible"/>
	</clipPath>
	<path clip-path="url(#SVGID_34_)" fill="none" stroke="#72150F" stroke-width="0.1" stroke-miterlimit="10" d="M307.082,97.197
		l3.977,3.978L307.082,97.197z M307.091,65.437l35.737,35.738L307.091,65.437z M315.025,101.174l-7.943-7.943L315.025,101.174z
		 M326.954,65.437l15.875,15.875L326.954,65.437z M307.091,85.289l15.886,15.886L307.091,85.289z M307.091,77.336l23.827,23.828
		L307.091,77.336z M307.091,81.312l19.862,19.862L307.091,81.312z M342.837,69.404l-3.967-3.967L342.837,69.404z M334.895,101.174
		L307.091,73.37L334.895,101.174z M319.009,65.437l23.819,23.819L319.009,65.437z M307.091,69.394l31.771,31.771L307.091,69.394z
		 M334.904,65.437l7.934,7.933L334.904,65.437z M342.82,97.197l-31.762-31.76L342.82,97.197z M342.837,77.346l-11.91-11.91
		L342.837,77.346z M315.025,65.437l27.795,27.794L315.025,65.437z M319.009,101.174l-11.918-11.919L319.009,101.174z
		 M342.829,85.289l-19.852-19.852L342.829,85.289z"/>
</g>
<g>
	<defs>
		<path id="SVGID_35_" d="M486.62,65.437v36.568c0-9.274-301.763-36.568-301.763-36.568H486.62z"/>
	</defs>
	<clipPath id="SVGID_36_">
		<use xlink:href="#SVGID_35_"  overflow="visible"/>
	</clipPath>
	<path clip-path="url(#SVGID_36_)" fill="none" stroke="#72150F" stroke-width="0.1" stroke-miterlimit="10" d="M271.344,97.197
		l3.976,3.978L271.344,97.197z M271.354,65.437l35.737,35.738L271.354,65.437z M279.287,101.174l-7.942-7.943L279.287,101.174z
		 M291.214,65.437l15.877,15.875L291.214,65.437z M271.354,85.289l15.884,15.886L271.354,85.289z M271.354,77.336l23.827,23.828
		L271.354,77.336z M271.354,81.312l19.86,19.862L271.354,81.312z M307.1,69.404l-3.968-3.967L307.1,69.404z M299.157,101.174
		L271.354,73.37L299.157,101.174z M283.273,65.437l23.818,23.819L283.273,65.437z M271.354,69.394l31.77,31.771L271.354,69.394z
		 M299.167,65.437l7.934,7.933L299.167,65.437z M307.082,97.197l-31.762-31.76L307.082,97.197z M307.1,77.346l-11.91-11.91
		L307.1,77.346z M279.287,65.437l27.795,27.794L279.287,65.437z M283.273,101.174l-11.919-11.919L283.273,101.174z M307.091,85.289
		l-19.854-19.852L307.091,85.289z"/>
</g>
<g>
	<defs>
		<path id="SVGID_37_" d="M486.62,65.437v36.568c0-9.274-301.763-36.568-301.763-36.568H486.62z"/>
	</defs>
	<clipPath id="SVGID_38_">
		<use xlink:href="#SVGID_37_"  overflow="visible"/>
	</clipPath>
	<path clip-path="url(#SVGID_38_)" fill="none" stroke="#72150F" stroke-width="0.1" stroke-miterlimit="10" d="M235.607,97.197
		l3.976,3.978L235.607,97.197z M235.616,65.437l35.738,35.738L235.616,65.437z M243.549,101.174l-7.942-7.943L243.549,101.174z
		 M255.477,65.437l15.877,15.875L255.477,65.437z M235.616,85.289l15.886,15.886L235.616,85.289z M235.616,77.336l23.827,23.828
		L235.616,77.336z M235.616,81.312l19.861,19.862L235.616,81.312z M271.362,69.404l-3.967-3.967L271.362,69.404z M263.419,101.174
		L235.616,73.37L263.419,101.174z M247.534,65.437l23.82,23.819L247.534,65.437z M235.616,69.394l31.771,31.771L235.616,69.394z
		 M263.429,65.437l7.933,7.933L263.429,65.437z M271.344,97.197l-31.761-31.76L271.344,97.197z M271.362,77.346l-11.909-11.91
		L271.362,77.346z M243.549,65.437l27.795,27.794L243.549,65.437z M247.534,101.174l-11.918-11.919L247.534,101.174z
		 M271.354,85.289l-19.853-19.852L271.354,85.289z"/>
</g>
<g>
	<defs>
		<path id="SVGID_39_" d="M486.62,65.437v36.568c0-9.274-301.763-36.568-301.763-36.568H486.62z"/>
	</defs>
	<clipPath id="SVGID_40_">
		<use xlink:href="#SVGID_39_"  overflow="visible"/>
	</clipPath>
	<path clip-path="url(#SVGID_40_)" fill="none" stroke="#72150F" stroke-width="0.1" stroke-miterlimit="10" d="M199.869,97.197
		l3.976,3.978L199.869,97.197z M199.878,65.437l35.738,35.738L199.878,65.437z M207.812,101.174l-7.942-7.943L207.812,101.174z
		 M219.739,65.437l15.876,15.875L219.739,65.437z M199.878,85.289l15.885,15.886L199.878,85.289z M199.878,77.336l23.828,23.828
		L199.878,77.336z M199.878,81.312l19.861,19.862L199.878,81.312z M235.625,69.404l-3.967-3.967L235.625,69.404z M227.682,101.174
		L199.878,73.37L227.682,101.174z M211.796,65.437l23.819,23.819L211.796,65.437z M199.878,69.394l31.771,31.771L199.878,69.394z
		 M227.691,65.437l7.934,7.933L227.691,65.437z M235.607,97.197l-31.762-31.76L235.607,97.197z M235.625,77.346l-11.91-11.91
		L235.625,77.346z M207.812,65.437l27.795,27.794L207.812,65.437z M211.796,101.174l-11.918-11.919L211.796,101.174z
		 M235.616,85.289l-19.853-19.852L235.616,85.289z"/>
</g>
<g>
	<defs>
		<path id="SVGID_41_" d="M486.62,65.437v36.568c0-9.274-301.763-36.568-301.763-36.568H486.62z"/>
	</defs>
	<clipPath id="SVGID_42_">
		<use xlink:href="#SVGID_41_"  overflow="visible"/>
	</clipPath>
	<path clip-path="url(#SVGID_42_)" fill="none" stroke="#72150F" stroke-width="0.1" stroke-miterlimit="10" d="M164.131,97.197
		l3.976,3.978L164.131,97.197z M164.14,65.437l35.738,35.738L164.14,65.437z M172.074,101.174l-7.942-7.943L172.074,101.174z
		 M184.002,65.437l15.876,15.875L184.002,65.437z M164.14,85.289l15.886,15.886L164.14,85.289z M164.14,77.336l23.828,23.828
		L164.14,77.336z M164.14,81.312l19.862,19.862L164.14,81.312z M199.887,69.404l-3.967-3.967L199.887,69.404z M191.944,101.174
		L164.14,73.37L191.944,101.174z M176.059,65.437l23.819,23.819L176.059,65.437z M164.14,69.394l31.771,31.771L164.14,69.394z
		 M191.953,65.437l7.934,7.933L191.953,65.437z M199.869,97.197l-31.762-31.76L199.869,97.197z M199.887,77.346l-11.909-11.91
		L199.887,77.346z M172.074,65.437l27.795,27.794L172.074,65.437z M176.059,101.174L164.14,89.255L176.059,101.174z M199.878,85.289
		l-19.852-19.852L199.878,85.289z"/>
</g>
<g>
	<defs>
		<path id="SVGID_43_" d="M486.62,65.437v36.568c0-9.274-301.763-36.568-301.763-36.568H486.62z"/>
	</defs>
	<clipPath id="SVGID_44_">
		<use xlink:href="#SVGID_43_"  overflow="visible"/>
	</clipPath>
	<path clip-path="url(#SVGID_44_)" fill="none" stroke="#72150F" stroke-width="0.1" stroke-miterlimit="10" d="M128.394,97.197
		l3.976,3.978L128.394,97.197z M128.402,65.437l35.738,35.738L128.402,65.437z M136.336,101.174l-7.942-7.943L136.336,101.174z
		 M148.264,65.437l15.876,15.875L148.264,65.437z M128.402,85.289l15.886,15.886L128.402,85.289z M128.402,77.336l23.828,23.828
		L128.402,77.336z M128.402,81.312l19.862,19.862L128.402,81.312z M164.149,69.404l-3.966-3.967L164.149,69.404z M156.207,101.174
		L128.402,73.37L156.207,101.174z M140.321,65.437l23.819,23.819L140.321,65.437z M128.402,69.394l31.771,31.771L128.402,69.394z
		 M156.215,65.437l7.934,7.933L156.215,65.437z M164.131,97.197l-31.762-31.76L164.131,97.197z M164.149,77.346l-11.909-11.91
		L164.149,77.346z M136.336,65.437l27.795,27.794L136.336,65.437z M140.321,101.174l-11.918-11.919L140.321,101.174z M164.14,85.289
		l-19.852-19.852L164.14,85.289z"/>
</g>
<g>
	<defs>
		<path id="SVGID_45_" d="M486.62,65.437v36.568c0-9.274-301.763-36.568-301.763-36.568H486.62z"/>
	</defs>
	<clipPath id="SVGID_46_">
		<use xlink:href="#SVGID_45_"  overflow="visible"/>
	</clipPath>
	<path clip-path="url(#SVGID_46_)" fill="none" stroke="#72150F" stroke-width="0.1" stroke-miterlimit="10" d="M92.656,97.197
		l3.976,3.978L92.656,97.197z M92.665,65.437l35.737,35.738L92.665,65.437z M100.599,101.174l-7.943-7.943L100.599,101.174z
		 M112.526,65.437l15.876,15.875L112.526,65.437z M92.665,85.289l15.885,15.886L92.665,85.289z M92.665,77.336l23.828,23.828
		L92.665,77.336z M92.665,81.312l19.861,19.862L92.665,81.312z M128.411,69.404l-3.966-3.967L128.411,69.404z M120.469,101.174
		L92.665,73.37L120.469,101.174z M104.583,65.437l23.819,23.819L104.583,65.437z M92.665,69.394l31.771,31.771L92.665,69.394z
		 M120.478,65.437l7.933,7.933L120.478,65.437z M128.394,97.197l-31.762-31.76L128.394,97.197z M128.411,77.346l-11.909-11.91
		L128.411,77.346z M100.599,65.437l27.795,27.794L100.599,65.437z M104.583,101.174L92.665,89.255L104.583,101.174z M128.402,85.289
		L108.55,65.437L128.402,85.289z"/>
</g>
<g>
	<defs>
		<path id="SVGID_47_" d="M486.62,65.437v36.568c0-9.274-301.763-36.568-301.763-36.568H486.62z"/>
	</defs>
	<clipPath id="SVGID_48_">
		<use xlink:href="#SVGID_47_"  overflow="visible"/>
	</clipPath>
	<path clip-path="url(#SVGID_48_)" fill="none" stroke="#72150F" stroke-width="0.1" stroke-miterlimit="10" d="M56.918,97.197
		l3.976,3.978L56.918,97.197z M56.927,65.437l35.738,35.738L56.927,65.437z M64.861,101.174l-7.943-7.943L64.861,101.174z
		 M76.789,65.437l15.876,15.875L76.789,65.437z M56.927,85.289l15.885,15.886L56.927,85.289z M56.927,77.336l23.828,23.828
		L56.927,77.336z M56.927,81.312l19.861,19.862L56.927,81.312z M92.674,69.404l-3.967-3.967L92.674,69.404z M84.731,101.174
		L56.927,73.37L84.731,101.174z M68.846,65.437l23.819,23.819L68.846,65.437z M56.927,69.394l31.771,31.771L56.927,69.394z
		 M84.74,65.437l7.934,7.933L84.74,65.437z M92.656,97.197l-31.762-31.76L92.656,97.197z M92.674,77.346l-11.909-11.91
		L92.674,77.346z M64.861,65.437l27.795,27.794L64.861,65.437z M68.846,101.174L56.927,89.255L68.846,101.174z M92.665,85.289
		L72.812,65.437L92.665,85.289z"/>
</g>
<text transform="matrix(1 0 0 1 13.8604 12.8208)" fill="#989797" font-family="'HelveticaNeue-Bold'" font-size="14.96">Documents</text>
<text transform="matrix(1 0 0 1 0 31.106)" fill="#989797" font-family="'HelveticaNeue'" font-size="14.96">(content</text>
<rect x="55.337" y="26.35" fill="#989797" width="4.324" height="1.196"/>
<text transform="matrix(1 0 0 1 60.4082 31.106)" fill="#989797" font-family="'HelveticaNeue'" font-size="14.96">centric)</text>
<text transform="matrix(1 0 0 1 445.2319 12.8208)" fill="#989797" font-family="'HelveticaNeue-Bold'" font-size="14.96">Applications</text>
<text transform="matrix(1 0 0 1 427.0552 31.106)" fill="#989797" font-family="'HelveticaNeue'" font-size="14.96">(behaviour</text>
<rect x="497.622" y="26.35" fill="#989797" width="4.324" height="1.196"/>
<text transform="matrix(1 0 0 1 502.6938 31.106)" fill="#989797" font-family="'HelveticaNeue'" font-size="14.96">centric)</text>
<text transform="matrix(1 0 0 1 134.2285 109.231)"><tspan x="0" y="0" fill="#9AA0B9" font-family="'HelveticaNeue-Light'" font-size="14.96">W</tspan><tspan x="13.314" y="0" fill="#9AA0B9" font-family="'HelveticaNeue-Light'" font-size="14.96">eb sites</tspan></text>
<text transform="matrix(1 0 0 1 323.7212 109.231)"><tspan x="0" y="0" fill="#D39EA2" font-family="'HelveticaNeue-Light'" font-size="14.96">W</tspan><tspan x="13.314" y="0" fill="#D39EA2" font-family="'HelveticaNeue-Light'" font-size="14.96">eb apps</tspan></text>
</svg>
